<?xml version="1.0" encoding="UTF-8" standalone="no"?>
<!-- Created with Inkscape (http://www.inkscape.org/) -->

<svg
   xmlns:dc="http://purl.org/dc/elements/1.1/"
   xmlns:cc="http://creativecommons.org/ns#"
   xmlns:rdf="http://www.w3.org/1999/02/22-rdf-syntax-ns#"
   xmlns:svg="http://www.w3.org/2000/svg"
   xmlns="http://www.w3.org/2000/svg"
   xmlns:sodipodi="http://sodipodi.sourceforge.net/DTD/sodipodi-0.dtd"
   xmlns:inkscape="http://www.inkscape.org/namespaces/inkscape"
   width="128"
   height="40"
   id="svg2"
   version="1.1"
   inkscape:version="0.91 r13725"
   sodipodi:docname="22quarter.svg">
  <defs
     id="defs4" />
  <sodipodi:namedview
     id="base"
     pagecolor="#ffffff"
     bordercolor="#666666"
     borderopacity="1.0"
     inkscape:pageopacity="0.0"
     inkscape:pageshadow="2"
     inkscape:zoom="5.6"
     inkscape:cx="57.204279"
     inkscape:cy="8.5075483"
     inkscape:document-units="px"
     inkscape:current-layer="layer1"
     showgrid="false"
     inkscape:window-width="1855"
     inkscape:window-height="959"
     inkscape:window-x="65"
     inkscape:window-y="24"
     inkscape:window-maximized="1" />
  <metadata
     id="metadata7">
    <rdf:RDF>
      <cc:Work
         rdf:about="">
        <dc:format>image/svg+xml</dc:format>
        <dc:type
           rdf:resource="http://purl.org/dc/dcmitype/StillImage" />
        <dc:title></dc:title>
      </cc:Work>
    </rdf:RDF>
  </metadata>
  <g
     inkscape:label="Layer 1"
     inkscape:groupmode="layer"
     id="layer1"
     transform="translate(0,-1012.3622)">
    <path
       sodipodi:type="arc"
       style="stroke-width:1.005;stroke-linejoin:round;stroke-miterlimit:4;stroke-dasharray:none"
       id="path2985"
       sodipodi:cx="51.359943"
       sodipodi:cy="19.120556"
       sodipodi:rx="5.2085991"
       sodipodi:ry="3.5355339"
       d="m 56.568542,19.120556 a 5.2085991,3.5355339 0 0 1 -5.208599,3.535534 5.2085991,3.5355339 0 0 1 -5.208599,-3.535534 5.2085991,3.5355339 0 0 1 5.208599,-3.535534 5.2085991,3.5355339 0 0 1 5.208599,3.535534 z"
       transform="matrix(0.9397012,-0.34199659,0.34199659,0.9397012,0.70652414,1042.9603)" />
    <rect
       style="stroke:none"
       id="rect2987"
       width="1.1260842"
       height="22.781229"
       x="59.344326"
       y="1020.1086"
       ry="0.15263741"
       rx="0.15263741" />
    <path
       sodipodi:type="arc"
       style="stroke-width:1.005;stroke-linejoin:round;stroke-miterlimit:4;stroke-dasharray:none"
       id="path2985-9"
       sodipodi:cx="51.359943"
       sodipodi:cy="19.120556"
       sodipodi:rx="5.2085991"
       sodipodi:ry="3.5355339"
       d="m 56.568542,19.120556 a 5.2085991,3.5355339 0 0 1 -5.208599,3.535534 5.2085991,3.5355339 0 0 1 -5.208599,-3.535534 5.2085991,3.5355339 0 0 1 5.208599,-3.535534 5.2085991,3.5355339 0 0 1 5.208599,3.535534 z"
       transform="matrix(0.9397012,-0.34199659,0.34199659,0.9397012,17.965692,1043.0408)" />
    <rect
       style="stroke:none"
       id="rect2987-9"
       width="1.1260842"
       height="22.781229"
       x="76.603493"
       y="1020.1891"
       ry="0.15263741"
       rx="0.15263741" />
  </g>
</svg>
