<?xml version="1.0" encoding="UTF-8" standalone="no"?>
<!-- Created with Inkscape (http://www.inkscape.org/) -->

<svg
   xmlns:dc="http://purl.org/dc/elements/1.1/"
   xmlns:cc="http://creativecommons.org/ns#"
   xmlns:rdf="http://www.w3.org/1999/02/22-rdf-syntax-ns#"
   xmlns:svg="http://www.w3.org/2000/svg"
   xmlns="http://www.w3.org/2000/svg"
   xmlns:sodipodi="http://sodipodi.sourceforge.net/DTD/sodipodi-0.dtd"
   xmlns:inkscape="http://www.inkscape.org/namespaces/inkscape"
   width="128"
   height="40"
   id="svg2"
   version="1.1"
   inkscape:version="0.48.4 r9939"
   sodipodi:docname="sixteenth.svg">
  <defs
     id="defs4" />
  <sodipodi:namedview
     id="base"
     pagecolor="#ffffff"
     bordercolor="#666666"
     borderopacity="1.0"
     inkscape:pageopacity="0.0"
     inkscape:pageshadow="2"
     inkscape:zoom="5.6"
     inkscape:cx="-5.6528634"
     inkscape:cy="22.793263"
     inkscape:document-units="px"
     inkscape:current-layer="layer1"
     showgrid="false"
     inkscape:window-width="1855"
     inkscape:window-height="959"
     inkscape:window-x="65"
     inkscape:window-y="24"
     inkscape:window-maximized="1" />
  <metadata
     id="metadata7">
    <rdf:RDF>
      <cc:Work
         rdf:about="">
        <dc:format>image/svg+xml</dc:format>
        <dc:type
           rdf:resource="http://purl.org/dc/dcmitype/StillImage" />
        <dc:title></dc:title>
      </cc:Work>
    </rdf:RDF>
  </metadata>
  <g
     inkscape:label="Layer 1"
     inkscape:groupmode="layer"
     id="layer1"
     transform="translate(0,-1012.3622)">
    <path
       sodipodi:type="arc"
       style="stroke-width:1.005;stroke-linejoin:round;stroke-miterlimit:4;stroke-dasharray:none"
       id="path2985"
       sodipodi:cx="51.359943"
       sodipodi:cy="19.120556"
       sodipodi:rx="5.2085991"
       sodipodi:ry="3.5355339"
       d="m 56.568542,19.120556 c 0,1.952621 -2.331969,3.535534 -5.208599,3.535534 -2.876629,0 -5.208599,-1.582913 -5.208599,-3.535534 0,-1.952622 2.33197,-3.535534 5.208599,-3.535534 2.87663,0 5.208599,1.582912 5.208599,3.535534 z"
       transform="matrix(0.9397012,-0.34199659,0.34199659,0.9397012,-17.597048,1047.3352)" />
    <rect
       style="stroke:none"
       id="rect2987"
       width="1.1260842"
       height="22.781229"
       x="41.040752"
       y="1024.4835"
       ry="0.15263741"
       rx="0.15263741" />
    <rect
       style="stroke:none"
       id="rect3778"
       width="55.757973"
       height="3.6043026"
       x="-250.89491"
       y="1036.1774"
       transform="matrix(0.99373177,-0.11179072,0.27960344,0.96011557,0,0)"
       rx="0.14815196"
       ry="0.1490774" />
    <path
       sodipodi:type="arc"
       style="stroke-width:1.005;stroke-linejoin:round;stroke-miterlimit:4;stroke-dasharray:none"
       id="path2985-5"
       sodipodi:cx="51.359943"
       sodipodi:cy="19.120556"
       sodipodi:rx="5.2085991"
       sodipodi:ry="3.5355339"
       d="m 56.568542,19.120556 c 0,1.952621 -2.331969,3.535534 -5.208599,3.535534 -2.876629,0 -5.208599,-1.582913 -5.208599,-3.535534 0,-1.952622 2.33197,-3.535534 5.208599,-3.535534 2.87663,0 5.208599,1.582912 5.208599,3.535534 z"
       transform="matrix(0.9397012,-0.34199659,0.34199659,0.9397012,18.947835,1042.9515)" />
    <rect
       style="stroke:none"
       id="rect2987-6"
       width="1.1260842"
       height="22.781229"
       x="77.58564"
       y="1020.0997"
       ry="0.15263741"
       rx="0.15263741" />
    <path
       sodipodi:type="arc"
       style="stroke-width:1.005;stroke-linejoin:round;stroke-miterlimit:4;stroke-dasharray:none"
       id="path2985-7"
       sodipodi:cx="51.359943"
       sodipodi:cy="19.120556"
       sodipodi:rx="5.2085991"
       sodipodi:ry="3.5355339"
       d="m 56.568542,19.120556 c 0,1.952621 -2.331969,3.535534 -5.208599,3.535534 -2.876629,0 -5.208599,-1.582913 -5.208599,-3.535534 0,-1.952622 2.33197,-3.535534 5.208599,-3.535534 2.87663,0 5.208599,1.582912 5.208599,3.535534 z"
       transform="matrix(0.9397012,-0.34199659,0.34199659,0.9397012,36.98355,1040.4514)" />
    <rect
       style="stroke:none"
       id="rect2987-5"
       width="1.1260842"
       height="22.781229"
       x="95.621353"
       y="1017.5997"
       ry="0.15263741"
       rx="0.15263741" />
    <rect
       style="fill:#000000;fill-opacity:1;stroke:none"
       id="rect3222"
       width="17.5"
       height="2.6785715"
       x="-33.767517"
       y="1027.5549"
       rx="0.12929504"
       ry="0.14868486"
       transform="matrix(0.99403745,-0.10903918,0.10903918,0.99403745,0,0)" />
  </g>
</svg>
