<?xml version="1.0" encoding="UTF-8" standalone="no"?>
<!-- Created with Inkscape (http://www.inkscape.org/) -->

<svg
   xmlns:dc="http://purl.org/dc/elements/1.1/"
   xmlns:cc="http://creativecommons.org/ns#"
   xmlns:rdf="http://www.w3.org/1999/02/22-rdf-syntax-ns#"
   xmlns:svg="http://www.w3.org/2000/svg"
   xmlns="http://www.w3.org/2000/svg"
   xmlns:sodipodi="http://sodipodi.sourceforge.net/DTD/sodipodi-0.dtd"
   xmlns:inkscape="http://www.inkscape.org/namespaces/inkscape"
   width="128"
   height="40"
   id="svg2"
   version="1.1"
   inkscape:version="0.48.4 r9939"
   sodipodi:docname="32.svg">
  <defs
     id="defs4" />
  <sodipodi:namedview
     id="base"
     pagecolor="#ffffff"
     bordercolor="#666666"
     borderopacity="1.0"
     inkscape:pageopacity="0.0"
     inkscape:pageshadow="2"
     inkscape:zoom="5.6"
     inkscape:cx="25.775708"
     inkscape:cy="44.221834"
     inkscape:document-units="px"
     inkscape:current-layer="layer1"
     showgrid="false"
     inkscape:window-width="1855"
     inkscape:window-height="959"
     inkscape:window-x="65"
     inkscape:window-y="24"
     inkscape:window-maximized="1" />
  <metadata
     id="metadata7">
    <rdf:RDF>
      <cc:Work
         rdf:about="">
        <dc:format>image/svg+xml</dc:format>
        <dc:type
           rdf:resource="http://purl.org/dc/dcmitype/StillImage" />
        <dc:title></dc:title>
      </cc:Work>
    </rdf:RDF>
  </metadata>
  <g
     inkscape:label="Layer 1"
     inkscape:groupmode="layer"
     id="layer1"
     transform="translate(0,-1012.3622)">
    <path
       sodipodi:type="arc"
       style="stroke-width:1.005;stroke-linejoin:round;stroke-miterlimit:4;stroke-dasharray:none"
       id="path2985"
       sodipodi:cx="51.359943"
       sodipodi:cy="19.120556"
       sodipodi:rx="5.2085991"
       sodipodi:ry="3.5355339"
       d="m 56.568542,19.120556 a 5.2085991,3.5355339 0 1 1 -10.417198,0 5.2085991,3.5355339 0 1 1 10.417198,0 z"
       transform="matrix(0.9397012,-0.34199659,0.34199659,0.9397012,-29.918476,1045.1924)" />
    <rect
       style="stroke:none"
       id="rect2987"
       width="1.1260842"
       height="22.781229"
       x="28.719316"
       y="1022.3407"
       ry="0.15263741"
       rx="0.15263741" />
    <path
       sodipodi:type="arc"
       style="stroke-width:1.005;stroke-linejoin:round;stroke-miterlimit:4;stroke-dasharray:none"
       id="path2985-6"
       sodipodi:cx="51.359943"
       sodipodi:cy="19.120556"
       sodipodi:rx="5.2085991"
       sodipodi:ry="3.5355339"
       d="m 56.568542,19.120556 a 5.2085991,3.5355339 0 1 1 -10.417198,0 5.2085991,3.5355339 0 1 1 10.417198,0 z"
       transform="matrix(0.9465707,-0.32249639,0.32249639,0.9465707,-12.115234,1042.4695)" />
    <rect
       style="stroke:none"
       id="rect2987-7"
       width="1.1260842"
       height="24.043921"
       x="46.681103"
       y="1019.5773"
       ry="0.15263741"
       rx="0.15263741" />
    <rect
       style="stroke:none"
       id="rect3778"
       width="35.36845"
       height="3.9470599"
       x="-97.083862"
       y="1017.8896"
       transform="matrix(0.99272117,-0.1204354,0.12293101,0.99241522,0,0)"
       rx="0.15100117"
       ry="0.15129574" />
    <path
       sodipodi:type="arc"
       style="stroke-width:1.005;stroke-linejoin:round;stroke-miterlimit:4;stroke-dasharray:none"
       id="path2985-9"
       sodipodi:cx="51.359943"
       sodipodi:cy="19.120556"
       sodipodi:rx="5.2085991"
       sodipodi:ry="3.5355339"
       d="m 56.568542,19.120556 a 5.2085991,3.5355339 0 1 1 -10.417198,0 5.2085991,3.5355339 0 1 1 10.417198,0 z"
       transform="matrix(0.9397012,-0.34199659,0.34199659,0.9397012,4.8406916,1040.9871)" />
    <rect
       style="stroke:none"
       id="rect2987-2"
       width="1.1260842"
       height="22.781229"
       x="63.478497"
       y="1018.1355"
       ry="0.15263741"
       rx="0.15263741" />
    <path
       sodipodi:type="arc"
       style="stroke-width:1.005;stroke-linejoin:round;stroke-miterlimit:4;stroke-dasharray:none"
       id="path2985-1"
       sodipodi:cx="51.359943"
       sodipodi:cy="19.120556"
       sodipodi:rx="5.2085991"
       sodipodi:ry="3.5355339"
       d="m 56.568542,19.120556 a 5.2085991,3.5355339 0 1 1 -10.417198,0 5.2085991,3.5355339 0 1 1 10.417198,0 z"
       transform="matrix(0.9397012,-0.34199659,0.34199659,0.9397012,29.782056,1044.7713)" />
    <rect
       style="stroke:none"
       id="rect2987-5"
       width="1.1260842"
       height="22.781229"
       x="88.419861"
       y="1021.9195"
       ry="0.15263741"
       rx="0.15263741" />
    <path
       sodipodi:type="arc"
       style="stroke-width:1.005;stroke-linejoin:round;stroke-miterlimit:4;stroke-dasharray:none"
       id="path2985-6-0"
       sodipodi:cx="51.359943"
       sodipodi:cy="19.120556"
       sodipodi:rx="5.2085991"
       sodipodi:ry="3.5355339"
       d="m 56.568542,19.120556 a 5.2085991,3.5355339 0 1 1 -10.417198,0 5.2085991,3.5355339 0 1 1 10.417198,0 z"
       transform="matrix(0.9465707,-0.32249639,0.32249639,0.9465707,47.585297,1042.0485)" />
    <rect
       style="stroke:none"
       id="rect2987-7-9"
       width="1.1260842"
       height="24.043921"
       x="106.38165"
       y="1019.1561"
       ry="0.15263741"
       rx="0.15263741" />
    <rect
       style="stroke:none"
       id="rect3778-2"
       width="19.214243"
       height="3.2404199"
       x="5.8600826"
       y="1026.5325"
       transform="matrix(0.98315083,-0.18279618,0.0805627,0.99674954,0,0)"
       rx="0.1491472"
       ry="0.15091933" />
  </g>
</svg>
