<?xml version="1.0" encoding="UTF-8" standalone="no"?>
<!-- Created with Inkscape (http://www.inkscape.org/) -->

<svg
   xmlns:dc="http://purl.org/dc/elements/1.1/"
   xmlns:cc="http://creativecommons.org/ns#"
   xmlns:rdf="http://www.w3.org/1999/02/22-rdf-syntax-ns#"
   xmlns:svg="http://www.w3.org/2000/svg"
   xmlns="http://www.w3.org/2000/svg"
   xmlns:sodipodi="http://sodipodi.sourceforge.net/DTD/sodipodi-0.dtd"
   xmlns:inkscape="http://www.inkscape.org/namespaces/inkscape"
   width="128"
   height="40"
   id="svg2"
   version="1.1"
   inkscape:version="0.48.4 r9939"
   sodipodi:docname="32.svg">
  <defs
     id="defs4" />
  <sodipodi:namedview
     id="base"
     pagecolor="#ffffff"
     bordercolor="#666666"
     borderopacity="1.0"
     inkscape:pageopacity="0.0"
     inkscape:pageshadow="2"
     inkscape:zoom="5.6"
     inkscape:cx="25.775708"
     inkscape:cy="44.221834"
     inkscape:document-units="px"
     inkscape:current-layer="layer1"
     showgrid="false"
     inkscape:window-width="1855"
     inkscape:window-height="959"
     inkscape:window-x="65"
     inkscape:window-y="24"
     inkscape:window-maximized="1" />
  <metadata
     id="metadata7">
    <rdf:RDF>
      <cc:Work
         rdf:about="">
        <dc:format>image/svg+xml</dc:format>
        <dc:type
           rdf:resource="http://purl.org/dc/dcmitype/StillImage" />
        <dc:title></dc:title>
      </cc:Work>
    </rdf:RDF>
  </metadata>
  <g
     inkscape:label="Layer 1"
     inkscape:groupmode="layer"
     id="layer1"
     transform="translate(0,-1012.3622)">
    <path
       sodipodi:type="arc"
       style="stroke-width:1.005;stroke-linejoin:round;stroke-miterlimit:4;stroke-dasharray:none"
       id="path2985"
       sodipodi:cx="51.359943"
       sodipodi:cy="19.120556"
       sodipodi:rx="5.2085991"
       sodipodi:ry="3.5355339"
       d="m 56.568542,19.120556 a 5.2085991,3.5355339 0 1 1 -10.417198,0 5.2085991,3.5355339 0 1 1 10.417198,0 z"
       transform="matrix(0.85363813,-0.34199659,0.31067464,0.9397012,-44.111242,1046.2638)" />
    <rect
       style="stroke:none"
       id="rect2987"
       width="1.0229511"
       height="22.781229"
       x="9.1561823"
       y="1023.4121"
       ry="0.15263741"
       rx="0.15263741" />
    <path
       sodipodi:type="arc"
       style="stroke-width:1.005;stroke-linejoin:round;stroke-miterlimit:4;stroke-dasharray:none"
       id="path2985-6"
       sodipodi:cx="51.359943"
       sodipodi:cy="19.120556"
       sodipodi:rx="5.2085991"
       sodipodi:ry="3.5355339"
       d="m 56.568542,19.120556 a 5.2085991,3.5355339 0 1 1 -10.417198,0 5.2085991,3.5355339 0 1 1 10.417198,0 z"
       transform="matrix(0.85987848,-0.32249639,0.29296037,0.9465707,-27.93852,1043.541)" />
    <rect
       style="stroke:none"
       id="rect2987-7"
       width="1.0229511"
       height="24.043921"
       x="25.472921"
       y="1020.6487"
       ry="0.15263741"
       rx="0.15263741" />
    <rect
       style="stroke:none"
       id="rect3778"
       width="32.178524"
       height="3.9418437"
       x="-105.27787"
       y="1015.3645"
       transform="matrix(0.99119979,-0.13237441,0.11182008,0.99372847,0,0)"
       rx="0.15095307"
       ry="0.15126117" />
    <path
       sodipodi:type="arc"
       style="stroke-width:1.005;stroke-linejoin:round;stroke-miterlimit:4;stroke-dasharray:none"
       id="path2985-9"
       sodipodi:cx="51.359943"
       sodipodi:cy="19.120556"
       sodipodi:rx="5.2085991"
       sodipodi:ry="3.5355339"
       d="m 56.568542,19.120556 a 5.2085991,3.5355339 0 1 1 -10.417198,0 5.2085991,3.5355339 0 1 1 10.417198,0 z"
       transform="matrix(0.85363813,-0.34199659,0.31067464,0.9397012,-12.535512,1042.0586)" />
    <rect
       style="stroke:none"
       id="rect2987-2"
       width="1.0229511"
       height="22.781229"
       x="40.731918"
       y="1019.2069"
       ry="0.15263741"
       rx="0.15263741" />
    <path
       sodipodi:type="arc"
       style="stroke-width:1.005;stroke-linejoin:round;stroke-miterlimit:4;stroke-dasharray:none"
       id="path2985-1"
       sodipodi:cx="51.359943"
       sodipodi:cy="19.120556"
       sodipodi:rx="5.2085991"
       sodipodi:ry="3.5355339"
       d="m 56.568542,19.120556 a 5.2085991,3.5355339 0 1 1 -10.417198,0 5.2085991,3.5355339 0 1 1 10.417198,0 z"
       transform="matrix(0.84999891,-0.34199659,0.30935017,0.9397012,6.8534247,1045.8428)" />
    <rect
       style="stroke:none"
       id="rect2987-5"
       width="1.0185901"
       height="22.781229"
       x="59.893761"
       y="1022.991"
       ry="0.15263741"
       rx="0.15263741" />
    <path
       sodipodi:type="arc"
       style="stroke-width:1.005;stroke-linejoin:round;stroke-miterlimit:4;stroke-dasharray:none"
       id="path2985-6-0"
       sodipodi:cx="51.359943"
       sodipodi:cy="19.120556"
       sodipodi:rx="5.2085991"
       sodipodi:ry="3.5355339"
       d="m 56.568542,19.120556 a 5.2085991,3.5355339 0 1 1 -10.417198,0 5.2085991,3.5355339 0 1 1 10.417198,0 z"
       transform="matrix(0.85621265,-0.32249639,0.29171143,0.9465707,22.957198,1043.12)" />
    <rect
       style="stroke:none"
       id="rect2987-7-9"
       width="1.0185901"
       height="24.043921"
       x="76.140953"
       y="1020.2276"
       ry="0.15263741"
       rx="0.15263741" />
    <rect
       style="stroke:none"
       id="rect3778-2"
       width="17.444485"
       height="3.2385075"
       x="-14.960483"
       y="1022.9067"
       transform="matrix(0.97952121,-0.201341,0.07291535,0.99733813,0,0)"
       rx="0.14903016"
       ry="0.15090321" />
    <path
       sodipodi:type="arc"
       style="stroke-width:1.005;stroke-linejoin:round;stroke-miterlimit:4;stroke-dasharray:none"
       id="path2985-5"
       sodipodi:cx="51.359943"
       sodipodi:cy="19.120556"
       sodipodi:rx="5.2085991"
       sodipodi:ry="3.5355339"
       d="m 56.568542,19.120556 a 5.2085991,3.5355339 0 1 1 -10.417198,0 5.2085991,3.5355339 0 1 1 10.417198,0 z"
       transform="matrix(0.86112187,-0.34199659,0.31339828,0.9397012,39.657776,1046.3838)" />
    <rect
       style="stroke:none"
       id="rect2987-3"
       width="1.0319192"
       height="22.781229"
       x="93.392189"
       y="1023.5322"
       ry="0.15263741"
       rx="0.15263741" />
    <path
       sodipodi:type="arc"
       style="stroke-width:1.005;stroke-linejoin:round;stroke-miterlimit:4;stroke-dasharray:none"
       id="path2985-6-7"
       sodipodi:cx="51.359943"
       sodipodi:cy="19.120556"
       sodipodi:rx="5.2085991"
       sodipodi:ry="3.5355339"
       d="m 56.568542,19.120556 a 5.2085991,3.5355339 0 1 1 -10.417198,0 5.2085991,3.5355339 0 1 1 10.417198,0 z"
       transform="matrix(0.86741693,-0.32249639,0.29552872,0.9465707,55.972282,1043.661)" />
    <rect
       style="stroke:none"
       id="rect2987-7-1"
       width="1.0319192"
       height="24.043921"
       x="109.85197"
       y="1020.7687"
       ry="0.15263741"
       rx="0.15263741" />
    <rect
       style="stroke:none"
       id="rect3778-20"
       width="32.455708"
       height="3.9422777"
       x="-22.565071"
       y="1026.6422"
       transform="matrix(0.99135011,-0.13124389,0.11278797,0.99361908,0,0)"
       rx="0.1509621"
       ry="0.15126669" />
    <path
       sodipodi:type="arc"
       style="stroke-width:1.005;stroke-linejoin:round;stroke-miterlimit:4;stroke-dasharray:none"
       id="path2985-9-9"
       sodipodi:cx="51.359943"
       sodipodi:cy="19.120556"
       sodipodi:rx="5.2085991"
       sodipodi:ry="3.5355339"
       d="m 56.568542,19.120556 a 5.2085991,3.5355339 0 1 1 -10.417198,0 5.2085991,3.5355339 0 1 1 10.417198,0 z"
       transform="matrix(0.86112187,-0.34199659,0.31339828,0.9397012,71.510327,1042.1786)" />
    <rect
       style="stroke:none"
       id="rect2987-2-8"
       width="1.0319192"
       height="22.781229"
       x="125.24475"
       y="1019.327"
       ry="0.15263741"
       rx="0.15263741" />
  </g>
</svg>
