<?xml version="1.0" encoding="UTF-8" standalone="no"?>
<!-- Created with Inkscape (http://www.inkscape.org/) -->

<svg
   xmlns:dc="http://purl.org/dc/elements/1.1/"
   xmlns:cc="http://creativecommons.org/ns#"
   xmlns:rdf="http://www.w3.org/1999/02/22-rdf-syntax-ns#"
   xmlns:svg="http://www.w3.org/2000/svg"
   xmlns="http://www.w3.org/2000/svg"
   xmlns:sodipodi="http://sodipodi.sourceforge.net/DTD/sodipodi-0.dtd"
   xmlns:inkscape="http://www.inkscape.org/namespaces/inkscape"
   width="128"
   height="40"
   id="svg2"
   version="1.1"
   inkscape:version="0.48.4 r9939"
   sodipodi:docname="sixtuplet.svg">
  <defs
     id="defs4" />
  <sodipodi:namedview
     id="base"
     pagecolor="#ffffff"
     bordercolor="#666666"
     borderopacity="1.0"
     inkscape:pageopacity="0.0"
     inkscape:pageshadow="2"
     inkscape:zoom="3.6957378"
     inkscape:cx="109.21737"
     inkscape:cy="-0.002794275"
     inkscape:document-units="px"
     inkscape:current-layer="layer1"
     showgrid="false"
     inkscape:window-width="1855"
     inkscape:window-height="959"
     inkscape:window-x="65"
     inkscape:window-y="24"
     inkscape:window-maximized="1" />
  <metadata
     id="metadata7">
    <rdf:RDF>
      <cc:Work
         rdf:about="">
        <dc:format>image/svg+xml</dc:format>
        <dc:type
           rdf:resource="http://purl.org/dc/dcmitype/StillImage" />
        <dc:title></dc:title>
      </cc:Work>
    </rdf:RDF>
  </metadata>
  <g
     inkscape:label="Layer 1"
     inkscape:groupmode="layer"
     id="layer1"
     transform="translate(0,-1012.3622)">
    <path
       sodipodi:type="arc"
       style="stroke-width:1.005;stroke-linejoin:round;stroke-miterlimit:4;stroke-dasharray:none"
       id="path2985"
       sodipodi:cx="51.359943"
       sodipodi:cy="19.120556"
       sodipodi:rx="5.2085991"
       sodipodi:ry="3.5355339"
       d="m 56.568542,19.120556 a 5.2085991,3.5355339 0 1 1 -10.417198,0 5.2085991,3.5355339 0 1 1 10.417198,0 z"
       transform="matrix(0.9397012,-0.34199659,0.34199659,0.9397012,-35.097048,1047.8709)" />
    <rect
       style="stroke:none"
       id="rect2987"
       width="1.1260842"
       height="22.781229"
       x="23.540752"
       y="1025.0192"
       ry="0.15263741"
       rx="0.15263741" />
    <path
       sodipodi:type="arc"
       style="stroke-width:1.005;stroke-linejoin:round;stroke-miterlimit:4;stroke-dasharray:none"
       id="path2985-6"
       sodipodi:cx="51.359943"
       sodipodi:cy="19.120556"
       sodipodi:rx="5.2085991"
       sodipodi:ry="3.5355339"
       d="m 56.568542,19.120556 a 5.2085991,3.5355339 0 1 1 -10.417198,0 5.2085991,3.5355339 0 1 1 10.417198,0 z"
       transform="matrix(0.9465707,-0.32249639,0.32249639,0.9465707,-17.293807,1046.0409)" />
    <rect
       style="stroke:none"
       id="rect2987-7"
       width="1.1260842"
       height="24.043921"
       x="41.502537"
       y="1023.1486"
       ry="0.15263741"
       rx="0.15263741" />
    <rect
       style="stroke:none"
       id="rect3778"
       width="88.373482"
       height="3.0805452"
       x="-583.66821"
       y="1162.5284"
       transform="matrix(0.99856293,-0.05359183,0.52102366,0.85354224,0,0)"
       rx="0.14764431"
       ry="0.12660894" />
    <path
       sodipodi:type="arc"
       style="stroke-width:1.005;stroke-linejoin:round;stroke-miterlimit:4;stroke-dasharray:none"
       id="path2985-5"
       sodipodi:cx="51.359943"
       sodipodi:cy="19.120556"
       sodipodi:rx="5.2085991"
       sodipodi:ry="3.5355339"
       d="m 56.568542,19.120556 a 5.2085991,3.5355339 0 1 1 -10.417198,0 5.2085991,3.5355339 0 1 1 10.417198,0 z"
       transform="matrix(0.9397012,-0.34199659,0.34199659,0.9397012,0.37640638,1046.3444)" />
    <rect
       style="stroke:none"
       id="rect2987-6"
       width="1.1260842"
       height="22.781229"
       x="59.014214"
       y="1023.4926"
       ry="0.15263741"
       rx="0.15263741" />
    <path
       sodipodi:type="arc"
       style="stroke-width:1.005;stroke-linejoin:round;stroke-miterlimit:4;stroke-dasharray:none"
       id="path2985-7"
       sodipodi:cx="51.359943"
       sodipodi:cy="19.120556"
       sodipodi:rx="5.2085991"
       sodipodi:ry="3.5355339"
       d="m 56.568542,19.120556 a 5.2085991,3.5355339 0 1 1 -10.417198,0 5.2085991,3.5355339 0 1 1 10.417198,0 z"
       transform="matrix(0.9397012,-0.34199659,0.34199659,0.9397012,18.23355,1044.9156)" />
    <rect
       style="stroke:none"
       id="rect2987-5"
       width="1.1260842"
       height="22.781229"
       x="76.871353"
       y="1022.0639"
       ry="0.15263741"
       rx="0.15263741" />
    <rect
       style="fill:#000000;fill-opacity:1;stroke:none"
       id="rect3051"
       width="88.139175"
       height="1.2612221"
       x="-16.99456"
       y="1029.139"
       rx="0.14680229"
       ry="0.1485655"
       transform="matrix(0.99827218,-0.05875925,0.03982193,0.99920679,0,0)" />
    <path
       sodipodi:type="arc"
       style="stroke-width:1.005;stroke-linejoin:round;stroke-miterlimit:4;stroke-dasharray:none"
       id="path2985-7-7"
       sodipodi:cx="51.359943"
       sodipodi:cy="19.120556"
       sodipodi:rx="5.2085991"
       sodipodi:ry="3.5355339"
       d="m 56.568542,19.120556 a 5.2085991,3.5355339 0 1 1 -10.417198,0 5.2085991,3.5355339 0 1 1 10.417198,0 z"
       transform="matrix(0.9397012,-0.34199659,0.34199659,0.9397012,35.733549,1043.8443)" />
    <rect
       style="stroke:none"
       id="rect2987-5-1"
       width="1.1260842"
       height="22.781229"
       x="94.371353"
       y="1020.9925"
       ry="0.15263741"
       rx="0.15263741" />
    <path
       sodipodi:type="arc"
       style="stroke-width:1.005;stroke-linejoin:round;stroke-miterlimit:4;stroke-dasharray:none"
       id="path2985-7-7-6"
       sodipodi:cx="51.359943"
       sodipodi:cy="19.120556"
       sodipodi:rx="5.2085991"
       sodipodi:ry="3.5355339"
       d="m 56.568542,19.120556 a 5.2085991,3.5355339 0 1 1 -10.417198,0 5.2085991,3.5355339 0 1 1 10.417198,0 z"
       transform="matrix(0.9397012,-0.34199659,0.34199659,0.9397012,52.876406,1042.0586)" />
    <rect
       style="stroke:none"
       id="rect2987-5-1-7"
       width="1.1260842"
       height="22.781229"
       x="111.51421"
       y="1019.2068"
       ry="0.15263741"
       rx="0.15263741" />
    <text
       xml:space="preserve"
       style="font-size:10px;font-style:normal;font-weight:normal;line-height:125%;letter-spacing:0px;word-spacing:0px;fill:#000000;fill-opacity:1;stroke:none;font-family:Sans"
       x="62.531021"
       y="1019.8787"
       id="text4132"
       sodipodi:linespacing="125%"><tspan
         sodipodi:role="line"
         id="tspan4134"
         x="62.531021"
         y="1019.8787">6</tspan></text>
  </g>
</svg>
