<?xml version="1.0" encoding="UTF-8" standalone="no"?>
<!-- Created with Inkscape (http://www.inkscape.org/) -->

<svg
   xmlns:dc="http://purl.org/dc/elements/1.1/"
   xmlns:cc="http://creativecommons.org/ns#"
   xmlns:rdf="http://www.w3.org/1999/02/22-rdf-syntax-ns#"
   xmlns:svg="http://www.w3.org/2000/svg"
   xmlns="http://www.w3.org/2000/svg"
   xmlns:sodipodi="http://sodipodi.sourceforge.net/DTD/sodipodi-0.dtd"
   xmlns:inkscape="http://www.inkscape.org/namespaces/inkscape"
   width="128"
   height="40"
   id="svg2"
   version="1.1"
   inkscape:version="0.48.4 r9939"
   sodipodi:docname="233.svg">
  <defs
     id="defs4" />
  <sodipodi:namedview
     id="base"
     pagecolor="#ffffff"
     bordercolor="#666666"
     borderopacity="1.0"
     inkscape:pageopacity="0.0"
     inkscape:pageshadow="2"
     inkscape:zoom="5.6"
     inkscape:cx="25.775708"
     inkscape:cy="44.221834"
     inkscape:document-units="px"
     inkscape:current-layer="layer1"
     showgrid="false"
     inkscape:window-width="1855"
     inkscape:window-height="959"
     inkscape:window-x="65"
     inkscape:window-y="24"
     inkscape:window-maximized="1" />
  <metadata
     id="metadata7">
    <rdf:RDF>
      <cc:Work
         rdf:about="">
        <dc:format>image/svg+xml</dc:format>
        <dc:type
           rdf:resource="http://purl.org/dc/dcmitype/StillImage" />
        <dc:title></dc:title>
      </cc:Work>
    </rdf:RDF>
  </metadata>
  <g
     inkscape:label="Layer 1"
     inkscape:groupmode="layer"
     id="layer1"
     transform="translate(0,-1012.3622)">
    <path
       sodipodi:type="arc"
       style="stroke-width:1.005;stroke-linejoin:round;stroke-miterlimit:4;stroke-dasharray:none"
       id="path2985"
       sodipodi:cx="51.359943"
       sodipodi:cy="19.120556"
       sodipodi:rx="5.2085991"
       sodipodi:ry="3.5355339"
       d="m 56.568542,19.120556 a 5.2085991,3.5355339 0 1 1 -10.417198,0 5.2085991,3.5355339 0 1 1 10.417198,0 z"
       transform="matrix(0.85363813,-0.34199659,0.31067464,0.9397012,40.174473,1045.9067)" />
    <rect
       style="stroke:none"
       id="rect2987"
       width="1.0229511"
       height="22.781229"
       x="93.441895"
       y="1023.055"
       ry="0.15263741"
       rx="0.15263741" />
    <path
       sodipodi:type="arc"
       style="stroke-width:1.005;stroke-linejoin:round;stroke-miterlimit:4;stroke-dasharray:none"
       id="path2985-6"
       sodipodi:cx="51.359943"
       sodipodi:cy="19.120556"
       sodipodi:rx="5.2085991"
       sodipodi:ry="3.5355339"
       d="m 56.568542,19.120556 a 5.2085991,3.5355339 0 1 1 -10.417198,0 5.2085991,3.5355339 0 1 1 10.417198,0 z"
       transform="matrix(0.85987848,-0.32249639,0.29296037,0.9465707,56.347195,1043.1839)" />
    <rect
       style="stroke:none"
       id="rect2987-7"
       width="1.0229511"
       height="24.043921"
       x="109.75864"
       y="1020.2916"
       ry="0.15263741"
       rx="0.15263741" />
    <rect
       style="stroke:none"
       id="rect3778"
       width="32.178524"
       height="3.9418437"
       x="-21.462849"
       y="1026.17"
       transform="matrix(0.99119979,-0.13237441,0.11182008,0.99372847,0,0)"
       rx="0.15095307"
       ry="0.15126117" />
    <path
       sodipodi:type="arc"
       style="stroke-width:1.005;stroke-linejoin:round;stroke-miterlimit:4;stroke-dasharray:none"
       id="path2985-9"
       sodipodi:cx="51.359943"
       sodipodi:cy="19.120556"
       sodipodi:rx="5.2085991"
       sodipodi:ry="3.5355339"
       d="m 56.568542,19.120556 a 5.2085991,3.5355339 0 1 1 -10.417198,0 5.2085991,3.5355339 0 1 1 10.417198,0 z"
       transform="matrix(0.85363813,-0.34199659,0.31067464,0.9397012,71.750203,1041.7015)" />
    <rect
       style="stroke:none"
       id="rect2987-2"
       width="1.0229511"
       height="22.781229"
       x="125.01764"
       y="1018.8498"
       ry="0.15263741"
       rx="0.15263741" />
    <path
       sodipodi:type="arc"
       style="stroke-width:1.005;stroke-linejoin:round;stroke-miterlimit:4;stroke-dasharray:none"
       id="path2985-1"
       sodipodi:cx="51.359943"
       sodipodi:cy="19.120556"
       sodipodi:rx="5.2085991"
       sodipodi:ry="3.5355339"
       d="m 56.568542,19.120556 a 5.2085991,3.5355339 0 1 1 -10.417198,0 5.2085991,3.5355339 0 1 1 10.417198,0 z"
       transform="matrix(0.84999891,-0.34199659,0.30935017,0.9397012,-42.43229,1045.6642)" />
    <rect
       style="stroke:none"
       id="rect2987-5"
       width="1.0185901"
       height="22.781229"
       x="10.60805"
       y="1022.8124"
       ry="0.15263741"
       rx="0.15263741" />
    <path
       sodipodi:type="arc"
       style="stroke-width:1.005;stroke-linejoin:round;stroke-miterlimit:4;stroke-dasharray:none"
       id="path2985-6-0"
       sodipodi:cx="51.359943"
       sodipodi:cy="19.120556"
       sodipodi:rx="5.2085991"
       sodipodi:ry="3.5355339"
       d="m 56.568542,19.120556 a 5.2085991,3.5355339 0 1 1 -10.417198,0 5.2085991,3.5355339 0 1 1 10.417198,0 z"
       transform="matrix(0.85621265,-0.32249639,0.29171143,0.9465707,-26.328517,1042.9414)" />
    <rect
       style="stroke:none"
       id="rect2987-7-9"
       width="1.0185901"
       height="24.043921"
       x="26.855242"
       y="1020.049"
       ry="0.15263741"
       rx="0.15263741" />
    <rect
       style="stroke:none"
       id="rect3778-2"
       width="17.444485"
       height="3.2385075"
       x="-64.518532"
       y="1012.723"
       transform="matrix(0.97952121,-0.201341,0.07291535,0.99733813,0,0)"
       rx="0.14903016"
       ry="0.15090321" />
    <path
       sodipodi:type="arc"
       style="stroke-width:1.005;stroke-linejoin:round;stroke-miterlimit:4;stroke-dasharray:none"
       id="path2985-5"
       sodipodi:cx="51.359943"
       sodipodi:cy="19.120556"
       sodipodi:rx="5.2085991"
       sodipodi:ry="3.5355339"
       d="m 56.568542,19.120556 a 5.2085991,3.5355339 0 1 1 -10.417198,0 5.2085991,3.5355339 0 1 1 10.417198,0 z"
       transform="matrix(0.86112187,-0.34199659,0.31339828,0.9397012,-8.0207954,1046.2053)" />
    <rect
       style="stroke:none"
       id="rect2987-3"
       width="1.0319192"
       height="22.781229"
       x="45.713619"
       y="1023.3537"
       ry="0.15263741"
       rx="0.15263741" />
    <path
       sodipodi:type="arc"
       style="stroke-width:1.005;stroke-linejoin:round;stroke-miterlimit:4;stroke-dasharray:none"
       id="path2985-6-7"
       sodipodi:cx="51.359943"
       sodipodi:cy="19.120556"
       sodipodi:rx="5.2085991"
       sodipodi:ry="3.5355339"
       d="m 56.568542,19.120556 a 5.2085991,3.5355339 0 1 1 -10.417198,0 5.2085991,3.5355339 0 1 1 10.417198,0 z"
       transform="matrix(0.86741693,-0.32249639,0.29552872,0.9465707,8.2937109,1043.4825)" />
    <rect
       style="stroke:none"
       id="rect2987-7-1"
       width="1.0319192"
       height="24.043921"
       x="62.173397"
       y="1020.5902"
       ry="0.15263741"
       rx="0.15263741" />
    <rect
       style="stroke:none"
       id="rect3778-20"
       width="32.455708"
       height="3.9422777"
       x="-69.927452"
       y="1020.2066"
       transform="matrix(0.99135011,-0.13124389,0.11278797,0.99361908,0,0)"
       rx="0.1509621"
       ry="0.15126669" />
    <path
       sodipodi:type="arc"
       style="stroke-width:1.005;stroke-linejoin:round;stroke-miterlimit:4;stroke-dasharray:none"
       id="path2985-9-9"
       sodipodi:cx="51.359943"
       sodipodi:cy="19.120556"
       sodipodi:rx="5.2085991"
       sodipodi:ry="3.5355339"
       d="m 56.568542,19.120556 a 5.2085991,3.5355339 0 1 1 -10.417198,0 5.2085991,3.5355339 0 1 1 10.417198,0 z"
       transform="matrix(0.86112187,-0.34199659,0.31339828,0.9397012,23.831756,1042.0001)" />
    <rect
       style="stroke:none"
       id="rect2987-2-8"
       width="1.0319192"
       height="22.781229"
       x="77.566177"
       y="1019.1485"
       ry="0.15263741"
       rx="0.15263741" />
  </g>
</svg>
